<?xml version="1.0" standalone="no"?>
<!DOCTYPE svg PUBLIC "-//W3C//DTD SVG 20010904//EN"
 "http://www.w3.org/TR/2001/REC-SVG-20010904/DTD/svg10.dtd">
<svg version="1.0" xmlns="http://www.w3.org/2000/svg"
 width="225.000000pt" height="225.000000pt" viewBox="0 0 225.000000 225.000000"
 preserveAspectRatio="xMidYMid meet">

<g transform="translate(0.000000,225.000000) scale(0.100000,-0.100000)"
fill="#000000" stroke="none">
<path d="M592 1658 c-7 -7 -12 -17 -12 -22 0 -6 113 -123 250 -261 l250 -250
-250 -250 c-137 -137 -250 -257 -250 -267 0 -9 10 -20 21 -23 18 -6 61 32 273
244 l251 251 250 -250 c138 -138 256 -249 264 -248 8 2 19 11 25 20 9 16 -25
53 -242 271 l-252 252 250 250 c182 181 250 255 248 270 -8 52 -40 28 -292
-224 l-251 -251 -250 250 c-137 138 -255 250 -260 250 -6 0 -16 -5 -23 -12z"/>
</g>
</svg>
