<svg width="90" height="90" fill="none" xmlns="http://www.w3.org/2000/svg"><path d="M45.1 85c-.95 0-1.84-.5-2.34-1.31L1.41 31.48c-.39-.62-.51-1.38-.33-2.09.17-.71.63-1.33 1.25-1.71L23.6 5.39c.43-.26.92-.39 1.42-.39h39.96c.5 0 .98.14 1.41.39l21.27 22.28c.63.38 1.08.99 1.25 1.7.18.71.06 1.47-.33 2.09L47.43 83.68a2.76 2.76 0 0 1-2.34 1.31l.01.01z" fill="#68A2D2"/><path d="M45.1 85c-.95 0-1.84-.5-2.34-1.31L1.41 31.48c-.39-.62-.51-1.38-.33-2.09.17-.71.63-1.33 1.25-1.71L23.6 5.39c.43-.26.92-.39 1.42-.39h39.96c.5 0 .98.14 1.41.39l21.27 22.28c.63.38 1.08.99 1.25 1.7.18.71.06 1.47-.33 2.09L47.43 83.68a2.76 2.76 0 0 1-2.34 1.31l.01.01z" fill="#68A2D2"/><path d="M45.1 85c-.95 0-1.84-.5-2.34-1.31L1.41 31.48c-.39-.62-.51-1.38-.33-2.09.17-.71.63-1.33 1.25-1.71L23.6 5.39c.43-.26.92-.39 1.42-.39h39.96c.5 0 .98.14 1.41.39l21.27 22.28c.63.38 1.08.99 1.25 1.7.18.71.06 1.47-.33 2.09L47.43 83.68a2.76 2.76 0 0 1-2.34 1.31l.01.01z" fill="#0B548C"/><path d="M65.16 7.75H25.02L3.75 30.04 45.1 82.25l18.94-46.5 22.39-5.71L65.16 7.75z" fill="#0BA6DE"/><path d="m64.04 35.75-6.88-28H25.02L3.75 30.04 45.1 82.25l-18.95-46.5h37.89z" fill="#87CBE3"/><path d="m26.15 35.75 6.87-28h-8L3.75 30.04l22.4 5.71z" fill="#DBFBFF"/><path d="m64.63 8.25 20.69 21.67.2.21L45.1 81.42 4.49 30.13l.2-.2L25.37 8.25h39.26zM64.98 5H25.02c-.5 0-.99.14-1.42.39L2.33 27.68c-.63.38-1.08.99-1.25 1.71-.18.71-.05 1.46.33 2.09l41.35 52.21c.5.81 1.38 1.31 2.34 1.31.95 0 1.84-.5 2.34-1.31l41.15-52.22a2.744 2.744 0 0 0-.92-3.79L66.4 5.4c-.43-.25-.91-.39-1.41-.39L64.98 5z" fill="#0381B8"/></svg>